<svg width="100%" height="100%" viewBox="0 0 298 58" version="1.1" xmlns="http://www.w3.org/2000/svg" xmlns:xlink="http://www.w3.org/1999/xlink" xml:space="preserve" xmlns:serif="http://www.serif.com/" style="fill-rule:evenodd;clip-rule:evenodd;stroke-linejoin:round;stroke-miterlimit:1.41421;"> <g id="g12"> <path id="path14" d="M54.728,44.026C43.994,41.478 44.845,36.562 44.845,31.861C44.845,25.367 47.279,12.402 52.447,7.232C55.683,3.998 61.529,2.847 73.125,2.672C83.16,2.519 84.635,3.71 88.797,5.081C95.323,7.232 94.799,14.678 94.799,14.678L93.043,25.02L79.815,25.02L106.726,57.634L88.025,57.634L76.927,43.57C76.927,43.57 63.699,46.155 54.728,44.026ZM111.136,44.634L96.236,27.301L101.154,4.901L117.217,4.901C117.217,4.901 111.895,29.734 111.214,32.396C110.309,35.932 114.055,37.488 116.762,37.488C120.704,37.488 122.549,35.657 122.946,34.828C124.515,31.559 130.293,4.901 130.293,4.901L146.256,4.951C146.256,4.951 141.472,35.626 136.983,39.314C132.726,42.81 129.989,43.873 124.363,44.634L111.136,44.634ZM207.718,12.614L189.734,12.614L188.25,19.273L203.578,19.273L202.279,27.107L186.352,27.107L182.85,43.567L166.537,43.445L174.915,4.741L209.831,4.741L207.718,12.614ZM160.021,43.523L144.03,43.523L152.605,4.901L168.819,4.901L160.021,43.523ZM39.98,43.449L0,43.449L9.268,0L48.342,0L46.67,8.782L25.536,8.782L23.889,15.973L42.717,15.973L40.436,24.992L22.025,24.992L19.779,34.224L42.086,34.224L39.98,43.449ZM251.744,43.426L227.91,43.426L227.113,35.096L210.145,35.096L204.671,43.426L193.726,43.426L221.091,4.607L240.265,4.607L244.002,36.111L257.2,24.177L244.299,4.715L264.963,4.715L271.363,15.133L281.41,4.715L297.028,4.715L276.246,22.977L289.93,43.426L270.163,43.426L263.362,31.699L251.744,43.426ZM72.365,10.12C68.19,10.196 65.382,11.834 64.154,14.985C62.297,19.756 60.354,26.968 60.354,30.493C60.354,31.732 59.495,37.862 66.763,37.862C74.339,37.862 76.613,29.449 77.839,23.045C79.207,15.898 80.727,9.968 72.365,10.12ZM216.269,26.662L226.291,26.662L224.65,13.526L216.269,26.662Z" style="fill-rule:nonzero;"/> </g> </svg>