<svg class="w-48" width="100%" height="100%" viewBox="0 0 564 155" version="1.1" xmlns="http://www.w3.org/2000/svg" xmlns:xlink="http://www.w3.org/1999/xlink" xml:space="preserve" xmlns:serif="http://www.serif.com/" style="fill-rule:evenodd;clip-rule:evenodd;stroke-linejoin:round;stroke-miterlimit:1.41421;"> <g transform="matrix(1,0,0,1,-915.82,-1612.97)"> <path d="M1350.91,1717.54C1349.56,1719 1348.1,1720.3 1346.54,1721.45C1344.28,1723.12 1341.8,1724.41 1339.11,1725.33C1336.42,1726.24 1333.67,1726.54 1330.87,1726.22C1326.24,1725.79 1322.96,1724.14 1321.02,1721.29C1319.09,1718.44 1317.9,1714.75 1317.47,1710.23C1317.04,1705.82 1317.34,1700.89 1318.36,1695.45C1319.38,1690.02 1320.54,1684.61 1321.83,1679.22L1322.32,1677.45C1321.02,1677.98 1319.49,1678.6 1317.71,1679.3C1315.94,1680 1314.4,1680.46 1313.11,1680.68C1312.46,1684.34 1311.6,1687.76 1310.53,1690.93C1309.45,1694.11 1308.32,1696.96 1307.13,1699.49C1305.95,1702.02 1304.82,1704.2 1303.74,1706.03C1302.67,1707.86 1301.81,1709.15 1301.16,1709.91C1300.62,1710.88 1299.98,1711.52 1299.22,1711.84C1298.47,1712.17 1297.8,1712.25 1297.2,1712.09C1296.61,1711.92 1296.21,1711.49 1295.99,1710.79C1295.78,1710.09 1295.99,1709.15 1296.64,1707.97C1298.14,1704.74 1299.76,1700.84 1301.48,1696.26C1303.2,1691.68 1304.5,1686.33 1305.36,1680.19C1302.88,1680.19 1300.78,1679.33 1299.06,1677.61C1297.34,1675.88 1296.91,1673.09 1297.77,1669.21C1298.31,1667.06 1298.92,1664.5 1299.62,1661.54C1300.33,1658.58 1300.89,1656.13 1301.32,1654.19C1301.43,1653.98 1301.51,1653.71 1301.56,1653.38C1301.62,1653.06 1302.07,1652.85 1302.94,1652.74C1307.46,1652.2 1310.74,1652.28 1312.79,1652.98C1314.83,1653.68 1316.1,1654.84 1316.58,1656.45C1317.07,1658.07 1317.04,1660.06 1316.5,1662.43C1315.96,1664.8 1315.37,1667.43 1314.72,1670.34C1315.59,1670.34 1316.58,1670.12 1317.71,1669.69C1318.84,1669.26 1319.95,1668.7 1321.02,1668C1322.1,1667.3 1323.07,1666.55 1323.93,1665.74C1324.79,1664.93 1325.38,1664.1 1325.71,1663.24C1325.81,1662.91 1326.08,1662.7 1326.51,1662.59C1328.67,1662.37 1330.74,1662.35 1332.73,1662.51C1334.72,1662.67 1336.42,1663.15 1337.82,1663.96C1339.22,1664.77 1340.21,1665.95 1340.81,1667.51C1341.4,1669.08 1341.42,1671.15 1340.89,1673.73C1340.67,1674.59 1340.4,1675.75 1340.08,1677.2C1339.76,1678.66 1339.43,1679.92 1339.11,1681C1338.57,1683.15 1338.01,1685.44 1337.41,1687.86C1336.82,1690.29 1336.28,1692.65 1335.8,1694.97C1335.32,1697.28 1334.94,1699.52 1334.67,1701.67C1334.4,1703.82 1334.27,1705.71 1334.27,1707.32C1334.48,1711.09 1335.64,1713.54 1337.74,1714.67C1339.84,1715.8 1342.39,1715.34 1345.41,1713.3C1346.27,1712.72 1347.08,1712.05 1347.85,1711.29C1345.91,1705.81 1345.29,1700.16 1345.97,1694.32C1346.67,1688.35 1348.48,1682.91 1351.38,1678.01C1354.29,1673.11 1358.17,1669.18 1363.01,1666.22C1367.86,1663.26 1373.4,1662 1379.64,1662.43C1382.34,1662.64 1384.84,1663.42 1387.15,1664.77C1389.47,1666.12 1391.49,1668.19 1393.21,1670.99C1393.53,1669.69 1393.86,1668.46 1394.18,1667.27C1394.5,1666.09 1394.77,1664.9 1394.99,1663.72C1395.09,1663.18 1395.47,1662.8 1396.12,1662.59C1398.27,1662.37 1400.37,1662.37 1402.41,1662.59C1404.46,1662.8 1406.21,1663.32 1407.66,1664.12C1409.12,1664.93 1410.17,1666.14 1410.81,1667.76C1411.46,1669.37 1411.51,1671.47 1410.97,1674.06C1410.54,1676.21 1409.92,1678.74 1409.12,1681.64C1408.31,1684.55 1407.56,1687.51 1406.86,1690.53C1406.16,1693.54 1405.54,1696.5 1405,1699.41C1404.46,1702.32 1404.25,1704.79 1404.35,1706.84C1404.46,1710.61 1405.59,1713.08 1407.74,1714.27C1409.9,1715.45 1412.54,1714.97 1415.66,1712.81C1416.14,1712.49 1416.61,1712.14 1417.06,1711.78C1416.95,1711.17 1416.86,1710.55 1416.79,1709.91C1416.46,1706.57 1416.6,1702.91 1417.19,1698.92C1417.78,1694.94 1418.51,1690.88 1419.37,1686.73C1420.23,1682.59 1421.2,1678.52 1422.28,1674.54C1423.35,1670.56 1424.22,1666.95 1424.86,1663.72C1424.97,1663.18 1425.4,1662.8 1426.15,1662.59C1428.31,1662.37 1430.41,1662.37 1432.45,1662.59C1434.5,1662.8 1436.25,1663.34 1437.7,1664.2C1439.15,1665.07 1440.2,1666.3 1440.85,1667.92C1441.5,1669.53 1441.55,1671.63 1441.01,1674.22C1440.47,1676.37 1439.83,1678.87 1439.07,1681.73C1438.32,1684.58 1437.57,1687.51 1436.81,1690.53C1436.06,1693.54 1435.44,1696.5 1434.95,1699.41C1434.47,1702.32 1434.23,1704.79 1434.23,1706.84C1434.34,1710.61 1435.49,1713.08 1437.7,1714.27C1439.91,1715.45 1442.57,1715.02 1445.69,1712.97C1447.31,1711.79 1448.76,1710.39 1450.05,1708.78C1451.35,1707.16 1452.48,1705.55 1453.45,1703.93C1454.95,1697.15 1456.46,1690.42 1457.97,1683.74C1459.48,1677.07 1460.98,1670.34 1462.49,1663.56C1462.7,1662.91 1463.13,1662.59 1463.78,1662.59C1465.93,1662.37 1468.01,1662.35 1470,1662.51C1471.99,1662.67 1473.71,1663.18 1475.17,1664.04C1476.62,1664.9 1477.67,1666.14 1478.32,1667.76C1478.96,1669.37 1479.02,1671.47 1478.48,1674.06C1476.86,1681.59 1475.25,1689.13 1473.63,1696.66C1472.02,1704.2 1470.35,1711.74 1468.63,1719.27C1468.41,1720.35 1468.14,1721.51 1467.82,1722.74C1467.5,1723.98 1467.17,1725.25 1466.85,1726.54C1466.2,1729.45 1465.58,1732.03 1464.99,1734.29C1464.4,1736.55 1463.51,1739.08 1462.33,1741.88C1460.5,1745.76 1458.37,1749.34 1455.95,1752.62C1453.53,1755.9 1450.67,1758.7 1447.39,1761.02C1444.11,1763.33 1440.42,1765.06 1436.33,1766.19C1432.24,1767.32 1427.61,1767.67 1422.44,1767.24C1419.53,1767.02 1416.95,1766.35 1414.69,1765.22C1412.43,1764.09 1410.57,1762.69 1409.12,1761.02C1407.66,1759.35 1406.64,1757.52 1406.05,1755.53C1405.46,1753.54 1405.38,1751.46 1405.81,1749.31C1406.56,1745.54 1408.47,1742.53 1411.54,1740.27C1414.61,1738.01 1417.97,1736.61 1421.63,1736.07C1423.35,1735.74 1424.22,1735.91 1424.22,1736.55C1424.22,1737.2 1424.11,1737.74 1423.89,1738.17L1423.73,1738.17C1422.22,1740 1421.15,1742.04 1420.5,1744.3C1419.86,1746.56 1419.8,1748.77 1420.34,1750.92C1420.77,1753.08 1421.79,1754.69 1423.41,1755.77C1425.02,1756.85 1426.85,1757.22 1428.9,1756.9C1430.94,1756.58 1433.12,1755.5 1435.44,1753.67C1437.75,1751.84 1439.88,1749.04 1441.82,1745.27C1442.89,1743.34 1443.76,1741.61 1444.4,1740.11C1445.05,1738.6 1445.59,1737.14 1446.02,1735.74C1446.45,1734.35 1446.83,1732.92 1447.15,1731.47C1447.47,1730.01 1447.85,1728.32 1448.28,1726.38C1448.49,1725.3 1448.68,1724.28 1448.84,1723.31C1449.01,1722.34 1449.19,1721.48 1449.41,1720.73L1449.89,1718.63C1447.31,1721.1 1444.35,1723.09 1441.01,1724.6C1437.67,1726.11 1434.23,1726.7 1430.67,1726.38C1425.83,1725.84 1422.44,1724.09 1420.5,1721.13C1420.09,1720.5 1419.71,1719.84 1419.36,1719.14C1418.54,1719.87 1417.68,1720.56 1416.79,1721.21C1414.42,1722.93 1411.86,1724.28 1409.12,1725.25C1406.37,1726.22 1403.55,1726.54 1400.64,1726.22C1396.98,1725.79 1394.15,1724.63 1392.16,1722.74C1390.17,1720.86 1388.74,1718.41 1387.88,1715.4C1385.4,1718.73 1382.47,1721.35 1379.08,1723.23C1375.69,1725.11 1371.68,1726.06 1367.05,1726.06C1362.31,1726.06 1358.33,1724.74 1355.1,1722.1C1353.49,1720.79 1352.09,1719.26 1350.91,1717.54ZM1257.72,1660.33C1261.81,1658.17 1265.39,1655.51 1268.46,1652.33C1271.53,1649.16 1273.98,1645.9 1275.81,1642.56C1277.96,1638.8 1279.25,1635.65 1279.68,1633.12C1280.11,1630.59 1279.92,1628.65 1279.12,1627.3C1278.31,1625.96 1276.99,1625.15 1275.16,1624.88C1273.33,1624.61 1271.23,1624.91 1268.86,1625.77C1264.66,1627.28 1260.62,1629.83 1256.75,1633.44C1252.87,1637.05 1249.27,1641.35 1245.93,1646.36C1242.59,1651.37 1239.6,1656.8 1236.97,1662.67C1234.33,1668.54 1232.12,1674.46 1230.35,1680.43C1228.57,1686.41 1227.3,1692.2 1226.55,1697.79C1225.8,1703.39 1225.61,1708.37 1225.99,1712.73C1226.36,1717.09 1227.38,1720.64 1229.05,1723.39C1230.72,1726.14 1233.12,1727.67 1236.24,1727.99C1239.68,1728.32 1243.05,1727.29 1246.33,1724.92C1249.62,1722.56 1252.63,1719.54 1255.38,1715.88C1258.12,1712.22 1260.49,1708.24 1262.48,1703.93C1264.47,1699.62 1265.85,1695.69 1266.6,1692.14C1266.28,1691.93 1265.39,1691.93 1263.93,1692.14C1262.48,1692.36 1260.73,1692.65 1258.69,1693.03C1256.64,1693.41 1254.52,1693.89 1252.31,1694.48C1250.1,1695.08 1248.14,1695.59 1246.41,1696.02C1245.88,1696.23 1245.39,1696.02 1244.96,1695.37C1244.53,1694.83 1244.58,1694.3 1245.12,1693.76C1247.7,1691.17 1250.91,1688.7 1254.73,1686.33C1258.55,1683.96 1262.59,1681.86 1266.84,1680.03C1271.1,1678.2 1275.35,1676.66 1279.6,1675.43C1283.85,1674.19 1287.76,1673.41 1291.31,1673.09C1291.85,1673.09 1292.28,1673.3 1292.6,1673.73C1292.92,1674.16 1292.98,1674.59 1292.76,1675.02C1291.15,1678.47 1289.4,1682.48 1287.51,1687.06C1285.63,1691.63 1284.28,1696.64 1283.48,1702.07C1282.67,1707.51 1282.75,1713.24 1283.72,1719.27C1284.69,1725.3 1287.16,1731.44 1291.15,1737.68C1291.36,1738.33 1291.36,1738.81 1291.15,1739.14C1290.72,1739.57 1290.29,1739.78 1289.86,1739.78C1286.62,1739.67 1283.8,1739.19 1281.38,1738.33C1278.95,1737.47 1276.91,1736.31 1275.24,1734.86C1273.57,1733.4 1272.23,1731.76 1271.2,1729.93C1270.18,1728.1 1269.4,1726.11 1268.86,1723.96C1264.34,1729.02 1259.2,1732.87 1253.44,1735.5C1247.68,1738.14 1242.05,1739.35 1236.56,1739.14C1228.81,1738.81 1222.57,1736.77 1217.83,1733C1213.09,1729.23 1209.65,1724.39 1207.49,1718.47C1205.34,1712.54 1204.37,1705.87 1204.59,1698.44C1204.8,1691.01 1205.99,1683.45 1208.14,1675.75C1210.29,1668.05 1213.31,1660.49 1217.18,1653.06C1221.06,1645.63 1225.53,1639.01 1230.59,1633.2C1235.65,1627.38 1241.19,1622.62 1247.22,1618.9C1253.25,1615.19 1259.6,1613.23 1266.28,1613.01C1271.55,1612.8 1276.26,1613.55 1280.41,1615.27C1284.55,1616.99 1287.92,1619.5 1290.5,1622.78C1293.09,1626.07 1294.75,1630.02 1295.51,1634.65C1296.26,1639.28 1295.78,1644.45 1294.05,1650.15C1292.65,1654.68 1290.58,1658.23 1287.84,1660.81C1285.09,1663.4 1282.02,1665.15 1278.63,1666.06C1275.24,1666.98 1271.71,1667.11 1268.05,1666.47C1264.39,1665.82 1260.89,1664.58 1257.56,1662.75C1257.13,1662.32 1256.91,1661.89 1256.91,1661.46C1256.91,1660.92 1257.18,1660.54 1257.72,1660.33ZM1020,1616.89C1022.26,1618.61 1023.5,1620.65 1023.72,1623.02C1023.93,1625.39 1023.45,1627.76 1022.26,1630.13C1021.08,1632.5 1019.38,1634.73 1017.18,1636.83C1014.97,1638.93 1012.68,1640.52 1010.31,1641.6C1009.77,1641.92 1009.24,1641.81 1008.7,1641.27C1008.27,1640.52 1008.27,1639.93 1008.7,1639.5C1009.45,1638.42 1010.07,1637.29 1010.56,1636.1C1011.04,1634.92 1011.04,1633.82 1010.56,1632.79C1010.07,1631.77 1008.94,1630.96 1007.16,1630.37C1005.39,1629.78 1002.56,1629.59 998.685,1629.81C994.917,1630.02 990.261,1630.83 984.716,1632.23C979.172,1633.63 973.331,1635.08 967.194,1636.59C967.194,1636.8 967.168,1637.05 967.114,1637.32C967.06,1637.59 967.033,1637.83 967.033,1638.04C966.71,1639.77 966.01,1642.81 964.934,1647.17C963.857,1651.53 962.565,1656.67 961.058,1662.59C964.503,1661.84 967.733,1661.35 970.747,1661.13C973.762,1660.92 976.346,1661.24 978.499,1662.1C980.652,1662.97 982.267,1664.53 983.344,1666.79C984.42,1669.05 984.797,1672.28 984.474,1676.48C984.474,1677.02 984.205,1677.39 983.667,1677.61C983.236,1677.93 982.805,1677.88 982.375,1677.45C980.867,1676.48 979.199,1675.88 977.368,1675.67C975.538,1675.45 973.52,1675.51 971.313,1675.83C969.105,1676.15 966.818,1676.64 964.449,1677.29C962.081,1677.93 959.658,1678.58 957.182,1679.22C955.675,1685.57 954.221,1691.98 952.822,1698.44C951.422,1704.9 950.238,1710.88 949.269,1716.37C948.3,1721.86 947.627,1726.65 947.25,1730.74C946.873,1734.83 947.008,1737.63 947.654,1739.14C944.101,1739.67 941.033,1739.73 938.449,1739.3C935.865,1738.87 933.793,1738.11 932.232,1737.04C930.67,1735.96 929.567,1734.59 928.921,1732.92C928.275,1731.25 928.06,1729.39 928.275,1727.35C928.383,1726.06 928.759,1723.9 929.405,1720.89C930.051,1717.87 930.832,1714.32 931.747,1710.23C932.662,1706.14 933.685,1701.67 934.815,1696.83C935.946,1691.98 937.103,1686.97 938.288,1681.81C935.165,1681.38 932.258,1680.3 929.567,1678.58C926.875,1676.85 924.615,1673.95 922.784,1669.86C922.461,1669.42 922.515,1668.94 922.946,1668.4C923.269,1668.08 923.699,1667.92 924.238,1667.92C926.822,1668.46 929.594,1668.62 932.555,1668.4C935.515,1668.19 938.61,1667.81 941.84,1667.27C943.025,1662.21 944.155,1657.42 945.232,1652.9C946.308,1648.38 947.277,1644.23 948.138,1640.46C943.294,1641.22 938.745,1641.6 934.492,1641.6C930.24,1641.6 926.606,1640.92 923.592,1639.58C920.577,1638.23 918.397,1636.05 917.051,1633.04C915.706,1630.02 915.463,1625.93 916.325,1620.76C916.54,1620.12 916.863,1619.74 917.294,1619.63C917.94,1619.63 918.424,1619.79 918.747,1620.12C921.331,1623.45 925.099,1625.31 930.051,1625.69C935.004,1626.07 940.656,1625.72 947.008,1624.64C953.36,1623.56 960.062,1622.05 967.114,1620.12C974.166,1618.18 981.029,1616.54 987.704,1615.19C994.379,1613.85 1000.54,1613.14 1006.2,1613.09C1011.85,1613.04 1016.45,1614.3 1020,1616.89ZM1092.49,1702.54C1092.24,1699.87 1092.27,1697.16 1092.59,1694.4C1093.29,1688.37 1095.1,1682.88 1098,1677.93C1100.91,1672.98 1104.79,1669.02 1109.63,1666.06C1114.48,1663.1 1120.02,1661.89 1126.26,1662.43C1131.97,1662.75 1136.55,1665.55 1139.99,1670.83C1141.82,1662.97 1143.68,1655.16 1145.56,1647.41C1147.45,1639.66 1149.25,1631.74 1150.97,1623.67C1151.19,1623.02 1151.62,1622.7 1152.26,1622.7C1154.42,1622.49 1156.49,1622.46 1158.48,1622.62C1160.47,1622.78 1162.2,1623.29 1163.65,1624.15C1165.1,1625.02 1166.15,1626.25 1166.8,1627.87C1167.44,1629.48 1167.5,1631.58 1166.96,1634.17C1165.35,1641.7 1163.57,1649.21 1161.63,1656.69C1159.69,1664.18 1157.86,1671.74 1156.14,1679.38C1155.71,1681.32 1155.2,1683.48 1154.61,1685.84C1154.01,1688.21 1153.45,1690.66 1152.91,1693.19C1152.37,1695.72 1151.94,1698.17 1151.62,1700.54C1151.3,1702.91 1151.13,1705.01 1151.13,1706.84C1151.24,1710.71 1152.4,1713.22 1154.61,1714.35C1156.81,1715.48 1159.48,1715.02 1162.6,1712.97C1163.89,1712.11 1165.08,1711.04 1166.15,1709.74C1167.23,1708.45 1168.23,1707.11 1169.14,1705.71C1170.06,1704.31 1170.84,1703.02 1171.48,1701.83C1172.13,1700.65 1172.67,1699.68 1173.1,1698.92C1173.42,1698.28 1173.88,1698.01 1174.47,1698.12C1175.06,1698.23 1175.52,1698.63 1175.84,1699.33C1176.16,1700.03 1176.27,1701.11 1176.16,1702.56C1176.06,1704.01 1175.52,1705.82 1174.55,1707.97C1173.37,1710.44 1171.83,1712.87 1169.95,1715.24C1168.06,1717.6 1165.94,1719.65 1163.57,1721.37C1161.2,1723.09 1158.64,1724.44 1155.9,1725.41C1153.15,1726.38 1150.33,1726.7 1147.42,1726.38C1143.65,1725.95 1140.8,1724.82 1138.86,1722.99C1136.92,1721.16 1135.52,1718.68 1134.66,1715.56C1132.08,1718.9 1129.09,1721.48 1125.7,1723.31C1122.31,1725.14 1118.3,1726.06 1113.67,1726.06C1109.04,1726.06 1105.11,1724.74 1101.88,1722.1C1098.65,1719.46 1096.23,1716.04 1094.61,1711.84C1094.47,1711.44 1094.33,1711.05 1094.2,1710.64C1093.9,1711 1093.61,1711.35 1093.32,1711.68C1090.63,1714.8 1087.53,1717.5 1084.03,1719.76C1080.54,1722.02 1076.85,1723.71 1072.97,1724.84C1069.1,1725.97 1065.11,1726.4 1061.02,1726.14C1056.93,1725.87 1053,1724.71 1049.23,1722.66C1046.51,1721.23 1044.25,1719.4 1042.45,1717.19C1041.01,1718.79 1039.45,1720.21 1037.77,1721.45C1035.51,1723.12 1033.03,1724.41 1030.34,1725.33C1027.65,1726.24 1024.9,1726.54 1022.1,1726.22C1017.47,1725.79 1014.19,1724.14 1012.25,1721.29C1010.31,1718.44 1009.13,1714.75 1008.7,1710.23C1008.27,1705.82 1008.56,1700.89 1009.59,1695.45C1010.61,1690.02 1011.77,1684.61 1013.06,1679.22L1013.54,1677.45C1012.25,1677.98 1010.72,1678.6 1008.94,1679.3C1007.16,1680 1005.63,1680.46 1004.34,1680.68C1003.69,1684.34 1002.83,1687.76 1001.75,1690.93C1000.68,1694.11 999.547,1696.96 998.362,1699.49C997.178,1702.02 996.048,1704.2 994.971,1706.03C993.894,1707.86 993.033,1709.15 992.387,1709.91C991.849,1710.88 991.203,1711.52 990.449,1711.84C989.696,1712.17 989.023,1712.25 988.431,1712.09C987.839,1711.92 987.435,1711.49 987.219,1710.79C987.004,1710.09 987.219,1709.15 987.865,1707.97C989.373,1704.74 990.988,1700.84 992.71,1696.26C994.433,1691.68 995.725,1686.33 996.586,1680.19C994.11,1680.19 992.01,1679.33 990.288,1677.61C988.565,1675.88 988.135,1673.09 988.996,1669.21C989.534,1667.06 990.153,1664.5 990.853,1661.54C991.553,1658.58 992.118,1656.13 992.549,1654.19C992.656,1653.98 992.737,1653.71 992.791,1653.38C992.845,1653.06 993.302,1652.85 994.164,1652.74C998.685,1652.2 1001.97,1652.28 1004.01,1652.98C1006.06,1653.68 1007.33,1654.84 1007.81,1656.45C1008.29,1658.07 1008.27,1660.06 1007.73,1662.43C1007.19,1664.8 1006.6,1667.43 1005.95,1670.34C1006.81,1670.34 1007.81,1670.12 1008.94,1669.69C1010.07,1669.26 1011.17,1668.7 1012.25,1668C1013.33,1667.3 1014.3,1666.55 1015.16,1665.74C1016.02,1664.93 1016.61,1664.1 1016.93,1663.24C1017.04,1662.91 1017.31,1662.7 1017.74,1662.59C1019.89,1662.37 1021.97,1662.35 1023.96,1662.51C1025.95,1662.67 1027.65,1663.15 1029.05,1663.96C1030.44,1664.77 1031.44,1665.95 1032.03,1667.51C1032.63,1669.08 1032.65,1671.15 1032.11,1673.73C1031.9,1674.59 1031.63,1675.75 1031.31,1677.2C1030.98,1678.66 1030.66,1679.92 1030.34,1681C1029.8,1683.15 1029.23,1685.44 1028.64,1687.86C1028.05,1690.29 1027.51,1692.65 1027.03,1694.97C1026.54,1697.28 1026.17,1699.52 1025.9,1701.67C1025.63,1703.82 1025.49,1705.71 1025.49,1707.32C1025.71,1711.09 1026.87,1713.54 1028.96,1714.67C1031.06,1715.8 1033.62,1715.34 1036.64,1713.3C1037.49,1712.73 1038.3,1712.07 1039.06,1711.31C1037.91,1708.5 1037.24,1705.51 1037.04,1702.32C1036.77,1698.01 1037.23,1693.57 1038.41,1688.99C1039.6,1684.42 1041.51,1680.22 1044.14,1676.4C1046.78,1672.57 1050.01,1669.32 1053.84,1666.63C1057.66,1663.93 1061.99,1662.27 1066.84,1661.62C1070.28,1661.19 1073.56,1661.32 1076.69,1662.02C1079.81,1662.72 1082.45,1664.15 1084.6,1666.3C1087.29,1668.89 1088.88,1671.66 1089.36,1674.62C1089.85,1677.58 1089.55,1680.49 1088.47,1683.34C1087.4,1686.19 1085.65,1688.86 1083.23,1691.33C1080.8,1693.81 1078.06,1695.94 1074.99,1697.71C1071.92,1699.49 1068.66,1700.76 1065.22,1701.51C1061.78,1702.26 1058.44,1702.32 1055.21,1701.67C1055.21,1705.12 1056.2,1707.83 1058.19,1709.83C1060.19,1711.82 1062.61,1713.19 1065.46,1713.94C1068.32,1714.7 1071.38,1714.8 1074.67,1714.27C1077.95,1713.73 1080.94,1712.54 1083.63,1710.71C1086.11,1708.99 1088.31,1707.11 1090.25,1705.06C1091.02,1704.25 1091.76,1703.41 1092.49,1702.54ZM1133.53,1704.58C1133.64,1702.85 1133.8,1701.13 1134.02,1699.41C1134.23,1697.69 1134.5,1695.96 1134.82,1694.24C1134.28,1694.13 1133.77,1694.08 1133.29,1694.08C1132.8,1694.08 1132.29,1693.97 1131.75,1693.76C1129.6,1693.11 1129.17,1691.77 1130.46,1689.72C1131.32,1688.32 1132.02,1686.65 1132.56,1684.71C1133.1,1682.78 1133.34,1680.92 1133.29,1679.14C1133.24,1677.37 1132.86,1675.8 1132.16,1674.46C1131.46,1673.11 1130.25,1672.28 1128.53,1671.95C1126.59,1671.63 1124.7,1672.04 1122.87,1673.17C1121.04,1674.3 1119.35,1675.91 1117.79,1678.01C1116.22,1680.11 1114.88,1682.53 1113.75,1685.28C1112.62,1688.02 1111.73,1690.82 1111.08,1693.68C1110.44,1696.53 1110.14,1699.3 1110.19,1701.99C1110.25,1704.68 1110.71,1707 1111.57,1708.94C1112.54,1711.31 1113.99,1712.92 1115.93,1713.78C1117.87,1714.64 1119.94,1714.86 1122.15,1714.43C1124.35,1714 1126.48,1712.95 1128.53,1711.28C1130.57,1709.61 1132.24,1707.38 1133.53,1704.58ZM1386.75,1704.41C1386.86,1702.8 1387.02,1701.16 1387.23,1699.49C1387.45,1697.82 1387.72,1696.07 1388.04,1694.24L1385.13,1693.76C1382.87,1693.11 1382.39,1691.77 1383.68,1689.72C1384.54,1688.32 1385.24,1686.65 1385.78,1684.71C1386.32,1682.78 1386.56,1680.92 1386.51,1679.14C1386.45,1677.37 1386.08,1675.8 1385.38,1674.46C1384.68,1673.11 1383.47,1672.28 1381.74,1671.95C1379.81,1671.63 1377.92,1672.04 1376.09,1673.17C1374.26,1674.3 1372.59,1675.91 1371.09,1678.01C1369.58,1680.11 1368.23,1682.53 1367.05,1685.28C1365.86,1688.02 1364.98,1690.82 1364.38,1693.68C1363.79,1696.53 1363.5,1699.3 1363.5,1701.99C1363.5,1704.68 1363.93,1707 1364.79,1708.94C1365.76,1711.31 1367.24,1712.92 1369.23,1713.78C1371.22,1714.64 1373.29,1714.83 1375.44,1714.35C1377.6,1713.86 1379.73,1712.79 1381.82,1711.12C1383.92,1709.45 1385.57,1707.21 1386.75,1704.41ZM1064.9,1676.96C1062.64,1679.12 1060.72,1681.7 1059.16,1684.71C1057.6,1687.73 1056.5,1690.69 1055.85,1693.6C1058.22,1693.49 1060.54,1693.03 1062.8,1692.22C1065.06,1691.41 1067.1,1690.37 1068.93,1689.07C1070.76,1687.78 1072.35,1686.33 1073.7,1684.71C1075.04,1683.1 1075.99,1681.43 1076.52,1679.71C1077.06,1677.88 1077.09,1676.42 1076.61,1675.35C1076.12,1674.27 1075.29,1673.6 1074.1,1673.33C1072.92,1673.06 1071.52,1673.22 1069.9,1673.81C1068.29,1674.4 1066.62,1675.45 1064.9,1676.96Z" style="fill:white;fill-rule:nonzero;"/> </g> </svg>